<svg width="147" height="33" viewBox="0 0 147 33" fill="none" xmlns="http://www.w3.org/2000/svg">
<path d="M0.4 18C0.4 15.2533 1.01333 12.8 2.24 10.64C3.49333 8.45333 5.18667 6.76 7.32 5.56C9.48 4.33333 11.8933 3.72 14.56 3.72C17.68 3.72 20.4133 4.52 22.76 6.12C25.1067 7.72 26.7467 9.93333 27.68 12.76H21.24C20.6 11.4267 19.6933 10.4267 18.52 9.76C17.3733 9.09333 16.04 8.76 14.52 8.76C12.8933 8.76 11.44 9.14667 10.16 9.92C8.90667 10.6667 7.92 11.7333 7.2 13.12C6.50667 14.5067 6.16 16.1333 6.16 18C6.16 19.84 6.50667 21.4667 7.2 22.88C7.92 24.2667 8.90667 25.3467 10.16 26.12C11.44 26.8667 12.8933 27.24 14.52 27.24C16.04 27.24 17.3733 26.9067 18.52 26.24C19.6933 25.5467 20.6 24.5333 21.24 23.2H27.68C26.7467 26.0533 25.1067 28.28 22.76 29.88C20.44 31.4533 17.7067 32.24 14.56 32.24C11.8933 32.24 9.48 31.64 7.32 30.44C5.18667 29.2133 3.49333 27.52 2.24 25.36C1.01333 23.2 0.4 20.7467 0.4 18ZM37.2631 13.28C37.9831 12.1067 38.9165 11.1867 40.0631 10.52C41.2365 9.85333 42.5698 9.52 44.0631 9.52V15.4H42.5831C40.8231 15.4 39.4898 15.8133 38.5831 16.64C37.7031 17.4667 37.2631 18.9067 37.2631 20.96V32H31.6631V9.84H37.2631V13.28ZM45.595 20.84C45.595 18.6 46.035 16.6133 46.915 14.88C47.8217 13.1467 49.035 11.8133 50.555 10.88C52.1017 9.94667 53.8217 9.48 55.715 9.48C57.3683 9.48 58.8083 9.81333 60.035 10.48C61.2883 11.1467 62.2883 11.9867 63.035 13V9.84H68.675V32H63.035V28.76C62.315 29.8 61.315 30.6667 60.035 31.36C58.7817 32.0267 57.3283 32.36 55.675 32.36C53.8083 32.36 52.1017 31.88 50.555 30.92C49.035 29.96 47.8217 28.6133 46.915 26.88C46.035 25.12 45.595 23.1067 45.595 20.84ZM63.035 20.92C63.035 19.56 62.7683 18.4 62.235 17.44C61.7017 16.4533 60.9817 15.7067 60.075 15.2C59.1683 14.6667 58.195 14.4 57.155 14.4C56.115 14.4 55.155 14.6533 54.275 15.16C53.395 15.6667 52.675 16.4133 52.115 17.4C51.5817 18.36 51.315 19.5067 51.315 20.84C51.315 22.1733 51.5817 23.3467 52.115 24.36C52.675 25.3467 53.395 26.1067 54.275 26.64C55.1817 27.1733 56.1417 27.44 57.155 27.44C58.195 27.44 59.1683 27.1867 60.075 26.68C60.9817 26.1467 61.7017 25.4 62.235 24.44C62.7683 23.4533 63.035 22.28 63.035 20.92ZM83.5044 14.44H79.6244V32H73.9444V14.44H71.4244V9.84H73.9444V8.72C73.9444 6 74.7177 4 76.2644 2.72C77.811 1.44 80.1444 0.839999 83.2644 0.92V5.64C81.9044 5.61333 80.9577 5.84 80.4244 6.32C79.891 6.8 79.6244 7.66667 79.6244 8.92V9.84H83.5044V14.44ZM92.8534 14.44V25.16C92.8534 25.9067 93.0268 26.4533 93.3734 26.8C93.7468 27.12 94.3601 27.28 95.2134 27.28H97.8134V32H94.2934C89.5734 32 87.2134 29.7067 87.2134 25.12V14.44H84.5734V9.84H87.2134V4.36H92.8534V9.84H97.8134V14.44H92.8534ZM121.641 20.44C121.641 21.24 121.588 21.96 121.481 22.6H105.281C105.415 24.2 105.975 25.4533 106.961 26.36C107.948 27.2667 109.161 27.72 110.601 27.72C112.681 27.72 114.161 26.8267 115.041 25.04H121.081C120.441 27.1733 119.215 28.9333 117.401 30.32C115.588 31.68 113.361 32.36 110.721 32.36C108.588 32.36 106.668 31.8933 104.961 30.96C103.281 30 101.961 28.6533 101.001 26.92C100.068 25.1867 99.6012 23.1867 99.6012 20.92C99.6012 18.6267 100.068 16.6133 101.001 14.88C101.935 13.1467 103.241 11.8133 104.921 10.88C106.601 9.94667 108.535 9.48 110.721 9.48C112.828 9.48 114.708 9.93333 116.361 10.84C118.041 11.7467 119.335 13.04 120.241 14.72C121.175 16.3733 121.641 18.28 121.641 20.44ZM115.841 18.84C115.815 17.4 115.295 16.2533 114.281 15.4C113.268 14.52 112.028 14.08 110.561 14.08C109.175 14.08 108.001 14.5067 107.041 15.36C106.108 16.1867 105.535 17.3467 105.321 18.84H115.841ZM123.489 20.84C123.489 18.6 123.929 16.6133 124.809 14.88C125.715 13.1467 126.942 11.8133 128.489 10.88C130.035 9.94667 131.755 9.48 133.649 9.48C135.089 9.48 136.462 9.8 137.769 10.44C139.075 11.0533 140.115 11.88 140.889 12.92V2.4H146.569V32H140.889V28.72C140.195 29.8133 139.222 30.6933 137.969 31.36C136.715 32.0267 135.262 32.36 133.609 32.36C131.742 32.36 130.035 31.88 128.489 30.92C126.942 29.96 125.715 28.6133 124.809 26.88C123.929 25.12 123.489 23.1067 123.489 20.84ZM140.929 20.92C140.929 19.56 140.662 18.4 140.129 17.44C139.595 16.4533 138.875 15.7067 137.969 15.2C137.062 14.6667 136.089 14.4 135.049 14.4C134.009 14.4 133.049 14.6533 132.169 15.16C131.289 15.6667 130.569 16.4133 130.009 17.4C129.475 18.36 129.209 19.5067 129.209 20.84C129.209 22.1733 129.475 23.3467 130.009 24.36C130.569 25.3467 131.289 26.1067 132.169 26.64C133.075 27.1733 134.035 27.44 135.049 27.44C136.089 27.44 137.062 27.1867 137.969 26.68C138.875 26.1467 139.595 25.4 140.129 24.44C140.662 23.4533 140.929 22.28 140.929 20.92Z" fill="#D9D9D9"/>
</svg>
