<svg clip-rule="evenodd" fill-rule="evenodd" height="829" image-rendering="optimizeQuality" shape-rendering="geometricPrecision" text-rendering="geometricPrecision" viewBox="5.17764672 -.5 377.64435328 129" width="2500" xmlns="http://www.w3.org/2000/svg"><path d="m7.5-.5h86a128.987 128.987 0 0 1 .5 27l-1.5 1.5c-17.997.5-35.997.667-54 .5.326 33.407-.007 66.74-1 100h-31a2718.465 2718.465 0 0 1 -.5-127c.717-.544 1.217-1.21 1.5-2z" fill="#010101" opacity=".995"/><path d="m135.5-.5h30c1.333 43 1.333 86 0 129h-30c-1.333-43-1.333-86 0-129z" fill="#030303" opacity=".999"/><path d="m204.5-.5h30c1.333 43 1.333 86 0 129h-31a2718.053 2718.053 0 0 1 -.5-127c.717-.544 1.217-1.21 1.5-2z" fill="#010202" opacity=".995"/><path d="m281.5-.5h31c1.333 43 1.333 86 0 129h-31c-1.333-43-1.333-86 0-129z" fill="#020202" opacity=".998"/><path d="m350.5-.5h30c.283.79.783 1.456 1.5 2 .822 42.375.656 84.708-.5 127h-31a2087.406 2087.406 0 0 1 0-129z" fill="#010101" opacity=".976"/><path d="m318.5 14.5a642.482 642.482 0 0 1 26.5 41c.986 19.483.652 38.816-1 58a1304.639 1304.639 0 0 1 -26-41c-.82-19.407-.653-38.74.5-58z" fill="#2bcb95" opacity=".998"/><path d="m171.5 14.5c1.574.437 2.741 1.437 3.5 3a1049.8 1049.8 0 0 0 23 37 580.853 580.853 0 0 1 -.5 59 1242.622 1242.622 0 0 1 -25.5-40c-.5-19.664-.667-39.33-.5-59z" fill="#209cc5" opacity=".998"/><path d="m45.5 49.5c12.671-.167 25.338 0 38 .5l1.5 1.5a483.82 483.82 0 0 0 1.5 20.5c.006 2.3-.494 4.466-1.5 6.5a276.59 276.59 0 0 1 -40.5.5l-1.5-1.5a156.492 156.492 0 0 1 0-25c.698-1.19 1.531-2.19 2.5-3z" fill="#fc6565" opacity=".994"/></svg>