<svg width="230" height="68" viewBox="0 0 230 68" fill="none" xmlns="http://www.w3.org/2000/svg">
<path d="M35.7344 65.9999H66.0772V28.0947L42.3256 38.2983L35.7344 65.9999Z" fill="#212121" stroke="white" stroke-width="4"/>
<path d="M2.03027 55.0156V65.9999H34.0329L40.589 38.458L2.03027 55.0156Z" fill="#212121" stroke="white" stroke-width="4"/>
<mask id="mask0_203_2" style="mask-type:luminance" maskUnits="userSpaceOnUse" x="0" y="35" width="44" height="33">
<path d="M2.03027 55.0156V65.9999H34.0329L40.589 38.458L2.03027 55.0156Z" fill="white" stroke="white" stroke-width="4"/>
</mask>
<g mask="url(#mask0_203_2)">
</g>
<path d="M49.3651 33.0897L66.0465 26.0022V2H31.5957L49.3651 33.0897Z" fill="#212121" stroke="white" stroke-width="4"/>
<mask id="mask1_203_2" style="mask-type:luminance" maskUnits="userSpaceOnUse" x="28" y="0" width="41" height="36">
<path d="M49.3651 33.0897L66.0465 26.0022V2H31.5957L49.3651 33.0897Z" fill="white" stroke="white" stroke-width="4"/>
</mask>
<g mask="url(#mask1_203_2)">
</g>
<path d="M47.3742 33.7742L29.5768 2.09338H2V53.256L47.3742 33.7742Z" fill="#212121" stroke="white" stroke-width="4"/>
<path d="M79.4771 34C79.4771 31.2533 80.0905 28.8 81.3171 26.64C82.5705 24.4533 84.2638 22.76 86.3971 21.56C88.5571 20.3333 90.9705 19.72 93.6371 19.72C96.7571 19.72 99.4905 20.52 101.837 22.12C104.184 23.72 105.824 25.9333 106.757 28.76H100.317C99.6771 27.4267 98.7705 26.4267 97.5971 25.76C96.4505 25.0933 95.1171 24.76 93.5971 24.76C91.9705 24.76 90.5171 25.1467 89.2371 25.92C87.9838 26.6667 86.9971 27.7333 86.2771 29.12C85.5838 30.5067 85.2371 32.1333 85.2371 34C85.2371 35.84 85.5838 37.4667 86.2771 38.88C86.9971 40.2667 87.9838 41.3467 89.2371 42.12C90.5171 42.8667 91.9705 43.24 93.5971 43.24C95.1171 43.24 96.4505 42.9067 97.5971 42.24C98.7705 41.5467 99.6771 40.5333 100.317 39.2H106.757C105.824 42.0533 104.184 44.28 101.837 45.88C99.5171 47.4533 96.7838 48.24 93.6371 48.24C90.9705 48.24 88.5571 47.64 86.3971 46.44C84.2638 45.2133 82.5705 43.52 81.3171 41.36C80.0905 39.2 79.4771 36.7467 79.4771 34ZM116.34 29.28C117.06 28.1067 117.994 27.1867 119.14 26.52C120.314 25.8533 121.647 25.52 123.14 25.52V31.4H121.66C119.9 31.4 118.567 31.8133 117.66 32.64C116.78 33.4667 116.34 34.9067 116.34 36.96V48H110.74V25.84H116.34V29.28ZM124.672 36.84C124.672 34.6 125.112 32.6133 125.992 30.88C126.899 29.1467 128.112 27.8133 129.632 26.88C131.179 25.9467 132.899 25.48 134.792 25.48C136.445 25.48 137.885 25.8133 139.112 26.48C140.365 27.1467 141.365 27.9867 142.112 29V25.84H147.752V48H142.112V44.76C141.392 45.8 140.392 46.6667 139.112 47.36C137.859 48.0267 136.405 48.36 134.752 48.36C132.885 48.36 131.179 47.88 129.632 46.92C128.112 45.96 126.899 44.6133 125.992 42.88C125.112 41.12 124.672 39.1067 124.672 36.84ZM142.112 36.92C142.112 35.56 141.845 34.4 141.312 33.44C140.779 32.4533 140.059 31.7067 139.152 31.2C138.245 30.6667 137.272 30.4 136.232 30.4C135.192 30.4 134.232 30.6533 133.352 31.16C132.472 31.6667 131.752 32.4133 131.192 33.4C130.659 34.36 130.392 35.5067 130.392 36.84C130.392 38.1733 130.659 39.3467 131.192 40.36C131.752 41.3467 132.472 42.1067 133.352 42.64C134.259 43.1733 135.219 43.44 136.232 43.44C137.272 43.44 138.245 43.1867 139.152 42.68C140.059 42.1467 140.779 41.4 141.312 40.44C141.845 39.4533 142.112 38.28 142.112 36.92ZM162.582 30.44H158.702V48H153.022V30.44H150.502V25.84H153.022V24.72C153.022 22 153.795 20 155.342 18.72C156.888 17.44 159.222 16.84 162.342 16.92V21.64C160.982 21.6133 160.035 21.84 159.502 22.32C158.968 22.8 158.702 23.6667 158.702 24.92V25.84H162.582V30.44ZM171.931 30.44V41.16C171.931 41.9067 172.104 42.4533 172.451 42.8C172.824 43.12 173.437 43.28 174.291 43.28H176.891V48H173.371C168.651 48 166.291 45.7067 166.291 41.12V30.44H163.651V25.84H166.291V20.36H171.931V25.84H176.891V30.44H171.931ZM200.718 36.44C200.718 37.24 200.665 37.96 200.558 38.6H184.358C184.492 40.2 185.052 41.4533 186.038 42.36C187.025 43.2667 188.238 43.72 189.678 43.72C191.758 43.72 193.238 42.8267 194.118 41.04H200.158C199.518 43.1733 198.292 44.9333 196.478 46.32C194.665 47.68 192.438 48.36 189.798 48.36C187.665 48.36 185.745 47.8933 184.038 46.96C182.358 46 181.038 44.6533 180.078 42.92C179.145 41.1867 178.678 39.1867 178.678 36.92C178.678 34.6267 179.145 32.6133 180.078 30.88C181.012 29.1467 182.318 27.8133 183.998 26.88C185.678 25.9467 187.612 25.48 189.798 25.48C191.905 25.48 193.785 25.9333 195.438 26.84C197.118 27.7467 198.412 29.04 199.318 30.72C200.252 32.3733 200.718 34.28 200.718 36.44ZM194.918 34.84C194.892 33.4 194.372 32.2533 193.358 31.4C192.345 30.52 191.105 30.08 189.638 30.08C188.252 30.08 187.078 30.5067 186.118 31.36C185.185 32.1867 184.612 33.3467 184.398 34.84H194.918ZM202.566 36.84C202.566 34.6 203.006 32.6133 203.886 30.88C204.793 29.1467 206.019 27.8133 207.566 26.88C209.113 25.9467 210.833 25.48 212.726 25.48C214.166 25.48 215.539 25.8 216.846 26.44C218.153 27.0533 219.193 27.88 219.966 28.92V18.4H225.646V48H219.966V44.72C219.273 45.8133 218.299 46.6933 217.046 47.36C215.793 48.0267 214.339 48.36 212.686 48.36C210.819 48.36 209.113 47.88 207.566 46.92C206.019 45.96 204.793 44.6133 203.886 42.88C203.006 41.12 202.566 39.1067 202.566 36.84ZM220.006 36.92C220.006 35.56 219.739 34.4 219.206 33.44C218.673 32.4533 217.953 31.7067 217.046 31.2C216.139 30.6667 215.166 30.4 214.126 30.4C213.086 30.4 212.126 30.6533 211.246 31.16C210.366 31.6667 209.646 32.4133 209.086 33.4C208.553 34.36 208.286 35.5067 208.286 36.84C208.286 38.1733 208.553 39.3467 209.086 40.36C209.646 41.3467 210.366 42.1067 211.246 42.64C212.153 43.1733 213.113 43.44 214.126 43.44C215.166 43.44 216.139 43.1867 217.046 42.68C217.953 42.1467 218.673 41.4 219.206 40.44C219.739 39.4533 220.006 38.28 220.006 36.92Z" fill="#212121"/>
</svg>
