<svg width="228" height="64" viewBox="0 0 228 64" fill="none" xmlns="http://www.w3.org/2000/svg">
<path d="M33.7344 63.9999H64.0772V26.0947L40.3256 36.2983L33.7344 63.9999Z" fill="white"/>
<path d="M0.0302734 53.0156V63.9999H32.0329L38.589 36.458L0.0302734 53.0156Z" fill="white"/>
<mask id="mask0_203_2" style="mask-type:luminance" maskUnits="userSpaceOnUse" x="-2" y="33" width="44" height="33">
<path d="M0.0302734 53.0156V63.9999H32.0329L38.589 36.458L0.0302734 53.0156Z" fill="white" stroke="white" stroke-width="4"/>
</mask>
<g mask="url(#mask0_203_2)">
</g>
<path d="M47.3651 31.0897L64.0465 24.0022V0H29.5957L47.3651 31.0897Z" fill="white"/>
<mask id="mask1_203_2" style="mask-type:luminance" maskUnits="userSpaceOnUse" x="26" y="-2" width="41" height="36">
<path d="M47.3651 31.0897L64.0465 24.0022V0H29.5957L47.3651 31.0897Z" fill="white" stroke="white" stroke-width="4"/>
</mask>
<g mask="url(#mask1_203_2)">
</g>
<path d="M45.3742 31.7742L27.5768 0.0933838H0V51.256L45.3742 31.7742Z" fill="white"/>
<path d="M77.4771 32C77.4771 29.2533 78.0905 26.8 79.3171 24.64C80.5705 22.4533 82.2638 20.76 84.3971 19.56C86.5571 18.3333 88.9705 17.72 91.6371 17.72C94.7571 17.72 97.4905 18.52 99.8372 20.12C102.184 21.72 103.824 23.9333 104.757 26.76H98.3172C97.6771 25.4267 96.7705 24.4267 95.5971 23.76C94.4505 23.0933 93.1171 22.76 91.5971 22.76C89.9705 22.76 88.5171 23.1467 87.2371 23.92C85.9838 24.6667 84.9971 25.7333 84.2771 27.12C83.5838 28.5067 83.2371 30.1333 83.2371 32C83.2371 33.84 83.5838 35.4667 84.2771 36.88C84.9971 38.2667 85.9838 39.3467 87.2371 40.12C88.5171 40.8667 89.9705 41.24 91.5971 41.24C93.1171 41.24 94.4505 40.9067 95.5971 40.24C96.7705 39.5467 97.6771 38.5333 98.3172 37.2H104.757C103.824 40.0533 102.184 42.28 99.8372 43.88C97.5171 45.4533 94.7838 46.24 91.6371 46.24C88.9705 46.24 86.5571 45.64 84.3971 44.44C82.2638 43.2133 80.5705 41.52 79.3171 39.36C78.0905 37.2 77.4771 34.7467 77.4771 32ZM114.34 27.28C115.06 26.1067 115.994 25.1867 117.14 24.52C118.314 23.8533 119.647 23.52 121.14 23.52V29.4H119.66C117.9 29.4 116.567 29.8133 115.66 30.64C114.78 31.4667 114.34 32.9067 114.34 34.96V46H108.74V23.84H114.34V27.28ZM122.672 34.84C122.672 32.6 123.112 30.6133 123.992 28.88C124.899 27.1467 126.112 25.8133 127.632 24.88C129.179 23.9467 130.899 23.48 132.792 23.48C134.445 23.48 135.885 23.8133 137.112 24.48C138.365 25.1467 139.365 25.9867 140.112 27V23.84H145.752V46H140.112V42.76C139.392 43.8 138.392 44.6667 137.112 45.36C135.859 46.0267 134.405 46.36 132.752 46.36C130.885 46.36 129.179 45.88 127.632 44.92C126.112 43.96 124.899 42.6133 123.992 40.88C123.112 39.12 122.672 37.1067 122.672 34.84ZM140.112 34.92C140.112 33.56 139.845 32.4 139.312 31.44C138.779 30.4533 138.059 29.7067 137.152 29.2C136.245 28.6667 135.272 28.4 134.232 28.4C133.192 28.4 132.232 28.6533 131.352 29.16C130.472 29.6667 129.752 30.4133 129.192 31.4C128.659 32.36 128.392 33.5067 128.392 34.84C128.392 36.1733 128.659 37.3467 129.192 38.36C129.752 39.3467 130.472 40.1067 131.352 40.64C132.259 41.1733 133.219 41.44 134.232 41.44C135.272 41.44 136.245 41.1867 137.152 40.68C138.059 40.1467 138.779 39.4 139.312 38.44C139.845 37.4533 140.112 36.28 140.112 34.92ZM160.582 28.44H156.702V46H151.022V28.44H148.502V23.84H151.022V22.72C151.022 20 151.795 18 153.342 16.72C154.888 15.44 157.222 14.84 160.342 14.92V19.64C158.982 19.6133 158.035 19.84 157.502 20.32C156.968 20.8 156.702 21.6667 156.702 22.92V23.84H160.582V28.44ZM169.931 28.44V39.16C169.931 39.9067 170.104 40.4533 170.451 40.8C170.824 41.12 171.437 41.28 172.291 41.28H174.891V46H171.371C166.651 46 164.291 43.7067 164.291 39.12V28.44H161.651V23.84H164.291V18.36H169.931V23.84H174.891V28.44H169.931ZM198.718 34.44C198.718 35.24 198.665 35.96 198.558 36.6H182.358C182.492 38.2 183.052 39.4533 184.038 40.36C185.025 41.2667 186.238 41.72 187.678 41.72C189.758 41.72 191.238 40.8267 192.118 39.04H198.158C197.518 41.1733 196.292 42.9333 194.478 44.32C192.665 45.68 190.438 46.36 187.798 46.36C185.665 46.36 183.745 45.8933 182.038 44.96C180.358 44 179.038 42.6533 178.078 40.92C177.145 39.1867 176.678 37.1867 176.678 34.92C176.678 32.6267 177.145 30.6133 178.078 28.88C179.012 27.1467 180.318 25.8133 181.998 24.88C183.678 23.9467 185.612 23.48 187.798 23.48C189.905 23.48 191.785 23.9333 193.438 24.84C195.118 25.7467 196.412 27.04 197.318 28.72C198.252 30.3733 198.718 32.28 198.718 34.44ZM192.918 32.84C192.892 31.4 192.372 30.2533 191.358 29.4C190.345 28.52 189.105 28.08 187.638 28.08C186.252 28.08 185.078 28.5067 184.118 29.36C183.185 30.1867 182.612 31.3467 182.398 32.84H192.918ZM200.566 34.84C200.566 32.6 201.006 30.6133 201.886 28.88C202.793 27.1467 204.019 25.8133 205.566 24.88C207.113 23.9467 208.833 23.48 210.726 23.48C212.166 23.48 213.539 23.8 214.846 24.44C216.153 25.0533 217.193 25.88 217.966 26.92V16.4H223.646V46H217.966V42.72C217.273 43.8133 216.299 44.6933 215.046 45.36C213.793 46.0267 212.339 46.36 210.686 46.36C208.819 46.36 207.113 45.88 205.566 44.92C204.019 43.96 202.793 42.6133 201.886 40.88C201.006 39.12 200.566 37.1067 200.566 34.84ZM218.006 34.92C218.006 33.56 217.739 32.4 217.206 31.44C216.673 30.4533 215.953 29.7067 215.046 29.2C214.139 28.6667 213.166 28.4 212.126 28.4C211.086 28.4 210.126 28.6533 209.246 29.16C208.366 29.6667 207.646 30.4133 207.086 31.4C206.553 32.36 206.286 33.5067 206.286 34.84C206.286 36.1733 206.553 37.3467 207.086 38.36C207.646 39.3467 208.366 40.1067 209.246 40.64C210.153 41.1733 211.113 41.44 212.126 41.44C213.166 41.44 214.139 41.1867 215.046 40.68C215.953 40.1467 216.673 39.4 217.206 38.44C217.739 37.4533 218.006 36.28 218.006 34.92Z" fill="white"/>
</svg>
